HIERARCHY
ROOT pelvis
{
  OFFSET 0 100 0
  CHANNELS 6 Xposition Yposition Zposition Zrotation Xrotation Yrotation
  JOINT pelvis_right_femur
  {
    OFFSET -10.78128 -3.44521 -0.5502486
    CHANNELS 3 Zrotation Xrotation Yrotation
    JOINT right_femur_tibia
    {
      OFFSET -0.8047443 -44.0398 -0.1307829
      CHANNELS 3 Zrotation Xrotation Yrotation
      JOINT right_tibia_foot
      {
        OFFSET 3.006224 -47.83518 -5
        CHANNELS 3 Zrotation Xrotation Yrotation
        End Site
        {
          OFFSET 0 -5 15
        }
      }
    }
  }
  JOINT pelvis_left_femur
  {
    OFFSET 10.78128 -3.44521 -0.5502486
    CHANNELS 3 Zrotation Xrotation Yrotation
    JOINT left_femur_tibia
    {
      OFFSET 0.8047443 -44.0398 -0.1307829
      CHANNELS 3 Zrotation Xrotation Yrotation
      JOINT left_tibia_foot
      {
        OFFSET -4.370144 -48.10324 -4.275266
        CHANNELS 3 Zrotation Xrotation Yrotation
        End Site
        {
          OFFSET 0 -5 15
        }
      }
    }
  }
  JOINT pelvis_spine1
  {
    OFFSET 0 6.468898 -3.129235
    CHANNELS 3 Zrotation Xrotation Yrotation
    JOINT spine1
    {
      OFFSET 0 23.15396 4.99043
      CHANNELS 3 Zrotation Xrotation Yrotation
      JOINT spine2
      {
        OFFSET 0 20.79997 -5.064912
        CHANNELS 3 Zrotation Xrotation Yrotation
        JOINT neck
        {
          OFFSET 0 14.38658 9.616178
          CHANNELS 3 Zrotation Xrotation Yrotation
          End Site
          {
            OFFSET 0 20 0
          }
        }
      }
      JOINT right_manubrium
      {
        OFFSET -5.722621 16.35077 3.967754
        CHANNELS 3 Zrotation Xrotation Yrotation
        JOINT right_clavicle
        {
          OFFSET -13.16364 1.694482 -4.693211
          CHANNELS 3 Zrotation Xrotation Yrotation
          JOINT right_humerus
          {
            OFFSET -28.5034 -0.3100689 -2.792744
            CHANNELS 3 Zrotation Xrotation Yrotation
            JOINT right_radius
            {
              OFFSET -25.15693 0.02248979 -1.271978
              CHANNELS 3 Zrotation Xrotation Yrotation
              End Site
              {
                OFFSET -15 0 0
              }
            }
          }
        }
      }
      JOINT left_manubrium
      {
        OFFSET 5.722621 16.35077 3.967754
        CHANNELS 3 Zrotation Xrotation Yrotation
        JOINT left_clavicle
        {
          OFFSET 13.16364 1.694482 -4.693211
          CHANNELS 3 Zrotation Xrotation Yrotation
          JOINT left_humerus
          {
            OFFSET 29.39168 -1.063119 -2.237045
            CHANNELS 3 Zrotation Xrotation Yrotation
            JOINT left_radius
            {
              OFFSET 24.59957 -0.9528479 0.9047498
              CHANNELS 3 Zrotation Xrotation Yrotation
              End Site
              {
                OFFSET 15 -0 -0
              }
            }
          }
        }
      }
    }
  }
}
MOTION
Frames: 19
Frame Time: 0.0416666666667
1964.811 33.17795 1987.782 8.597856 -0.1386257 83.00434 4.516955 6.081842 7.068068 -0 14.32981 -0 3.436223 -9.571626 -4.242866 -0.2645396 -15.03108 -3.153369 -0 48.66267 -0 -7.637972 -6.641898 17.6561 -0.5181301 0.8959565 8.105013 -0.1108229 12.26862 -4.118686 2.388249 21.64723 5.745601 2.714971 -15.45197 7.13756 3.645064 -18.55188 12.44626 82.23743 24.11644 -11.93703 -0 0 19.71058 -25.23865 16.2243 12.45335 4.332035 -18.91143 -4.317949 -90.79886 20.83503 19.83542 0 0 -17.09647 -1.389507 6.691227 14.88054
1970.944 32.54435 1987.965 8.726815 -0.2247812 82.04308 3.875988 10.11878 7.365962 -0 14.87878 -0 4.763377 -12.21043 -3.41841 0.8332353 -19.94984 -2.911503 -0 40.34224 -0 -8.312312 -7.648476 18.32731 -0.276563 1.252574 8.711175 -0.7762302 11.57439 -3.290146 2.428288 21.54308 5.986829 2.447195 -15.45224 7.646057 2.670186 -19.99115 12.35219 81.02013 23.19952 -9.031674 -0 0 23.14401 -26.98344 16.4218 13.40273 4.55476 -17.50299 -3.846483 -92.03045 20.87723 22.39029 0 0 -15.61131 -2.376744 6.646676 15.5968
1977.344 31.52672 1988.006 8.744338 -0.2458041 81.32091 3.075794 13.16889 7.307066 -0 17.69865 -0 6.395446 -14.31237 -2.933576 1.231038 -23.00489 -3.489977 -0 32.78228 -0 -9.208323 -8.54953 18.6963 -0.1624551 1.520984 9.044049 -1.439113 10.51443 -2.456904 2.640927 21.55072 6.01955 2.134754 -15.15538 8.131335 2.085424 -20.79672 12.01558 79.79023 23.03152 -6.142144 -0 0 25.64403 -28.24174 16.69832 14.11523 4.623637 -15.71636 -3.501771 -92.76375 21.27473 24.15986 0 0 -14.1477 -3.320461 6.925778 16.5799
1984.091 30.50527 1987.927 8.453491 -0.1085491 80.88818 2.169515 15.31399 6.955362 -0 22.12697 -0 7.780716 -15.04007 -2.651235 0.8617254 -24.48471 -4.427009 -0 27.21443 -0 -9.704597 -8.943176 18.64074 -0.3099687 1.439741 9.205984 -1.847676 9.594423 -1.939421 2.822105 21.55675 5.898584 1.849333 -15.05497 8.407956 1.808565 -21.20447 11.59154 78.92213 23.14968 -4.094624 -0 0 27.03738 -28.79432 16.60226 14.59783 4.44021 -14.17434 -3.292488 -93.08868 21.78375 25.38176 0 0 -12.8672 -3.92585 7.05126 17.58551
1991.161 29.78573 1987.759 7.897372 0.1933412 80.75825 1.24832 16.59229 6.414971 -0 27.42946 -0 8.412591 -14.015 -2.516788 -0.09114039 -24.60891 -5.382351 -0 23.82916 -0 -9.52339 -8.916366 18.24221 -0.7607797 1.003483 9.215904 -1.947425 9.086177 -1.852374 2.856807 21.53024 5.729183 1.663958 -15.38944 8.435896 1.715313 -21.35784 11.19876 78.68924 23.39575 -3.241651 -0 0 27.31598 -28.62161 15.98824 14.83523 4.068339 -13.25197 -3.144391 -93.06529 22.21874 26.09666 0 0 -11.80486 -4.033281 6.905479 18.22612
1998.446 29.56205 1987.528 7.28575 0.615215 80.93256 0.3998273 16.88398 5.802832 -0 33.32268 -0 8.138881 -11.28032 -2.557529 -1.421581 -23.43375 -6.238298 -0 22.38642 -0 -8.69923 -8.798069 17.67829 -1.474869 0.3786351 9.045073 -1.835966 9.025233 -2.122458 2.747224 21.5095 5.606698 1.618793 -16.03781 8.292787 1.806561 -21.24047 10.91266 79.11829 23.87477 -3.501982 -0 0 26.54908 -27.91646 15.08976 14.83959 3.628753 -13.02572 -3.033927 -92.74428 22.53452 26.23029 0 0 -10.95927 -3.698156 6.654575 18.32558
2005.787 29.89928 1987.244 6.822346 1.063736 81.40602 -0.2883616 16.03039 5.270783 -0 39.59412 -0 7.200682 -7.412732 -2.803374 -2.848485 -21.17449 -6.932989 -0 22.24075 -0 -7.453332 -8.904883 17.13154 -2.307315 -0.2106496 8.681702 -1.642432 9.316259 -2.617681 2.542472 21.5095 5.600796 1.70405 -16.74397 8.093572 2.119446 -20.86675 10.78179 80.00578 24.64947 -4.545155 -0 0 25.01766 -27.03066 14.3036 14.70131 3.238223 -13.36569 -2.986661 -92.2022 22.74331 25.80278 0 0 -10.40064 -3.139366 6.46943 17.99802
2013.017 30.74073 1986.901 6.576237 1.436386 82.15942 -0.7548473 13.98675 4.929269 -0 45.78428 -0 6.01794 -3.35341 -3.262364 -4.085301 -18.24003 -7.432516 -0 22.51201 -0 -6.055072 -9.373214 16.72517 -3.068624 -0.5976692 8.155484 -1.451487 9.803724 -3.228504 2.29193 21.50623 5.739362 1.875708 -17.28735 7.926878 2.654795 -20.32513 10.80521 81.02979 25.70191 -5.977502 -0 0 23.12827 -26.3115 13.95311 14.54797 2.975445 -14.05212 -3.037052 -91.51078 22.86549 24.93531 0 0 -10.24622 -2.581666 6.430697 17.50337
2019.997 31.94588 1986.483 6.483464 1.672342 83.14983 -0.9842077 10.88308 4.777212 -0 51.19343 -0 4.870831 0.09245868 -3.909709 -4.965866 -15.00683 -7.745849 -0 22.48921 -0 -4.68952 -10.15239 16.50272 -3.629015 -0.7392958 7.517591 -1.279251 10.34961 -3.9026 2.022556 21.47445 6.009628 2.091806 -17.56494 7.823185 3.359061 -19.71112 10.93324 81.94913 27.00923 -7.534803 -0 0 21.1875 -25.9445 14.13516 14.4727 2.87542 -14.91694 -3.196965 -90.70591 22.89905 23.74583 0 0 -10.56706 -2.114581 6.556629 17.01843
2026.642 33.33179 1985.976 6.45211 1.758664 84.31017 -0.9996745 6.962762 4.727514 -0 55.13615 -0 3.831535 2.537896 -4.690268 -5.467003 -11.65693 -7.91208 -0 21.84061 -0 -3.450563 -11.11753 16.45109 -3.946492 -0.6821877 6.810992 -1.099192 10.86437 -4.62529 1.744659 21.41602 6.378077 2.322308 -17.57826 7.778827 4.13086 -19.08157 11.09824 82.71168 28.53059 -9.134718 -0 0 19.32625 -25.9565 14.76383 14.50745 2.943087 -15.87843 -3.454808 -89.80311 22.82165 22.30272 0 0 -11.34737 -1.709691 6.843057 16.572
2032.921 34.70224 1985.387 6.440741 1.70774 85.55819 -0.84847 2.482067 4.667425 -0 57.11219 -0 2.914828 3.903453 -5.550163 -5.651533 -8.187875 -7.982695 -0 20.54663 -0 -2.424531 -12.16174 16.50599 -4.025987 -0.4969671 6.0604 -0.8762098 11.28295 -5.384744 1.469851 21.35844 6.803266 2.527918 -17.38563 7.79813 4.823504 -18.46034 11.23708 83.42281 30.11955 -10.80925 -0 0 17.58157 -26.28843 15.68893 14.62989 3.166726 -16.88575 -3.785874 -88.81104 22.6214 20.62769 0 0 -12.52944 -1.315683 7.265538 16.12055
2038.858 35.86614 1984.744 6.450602 1.548152 86.80787 -0.5965705 -2.349703 4.487834 -0 56.76077 -0 2.185035 4.224198 -6.444473 -5.615705 -4.506331 -8.015747 -0 18.76629 -0 -1.742608 -13.22984 16.53454 -3.890544 -0.2448446 5.282285 -0.5876505 11.53761 -6.152786 1.223063 21.3371 7.234763 2.649536 -17.07018 7.908005 5.261883 -17.84997 11.29635 84.25356 31.50713 -12.62053 -0 0 15.97553 -26.81917 16.75849 14.77113 3.531071 -17.88119 -4.151956 -87.71419 22.31885 18.68284 0 0 -14.08881 -0.9033848 7.76747 15.60174
2044.526 36.65085 1984.098 6.47106 1.330755 87.98064 -0.3283348 -7.388004 4.088586 -0 53.75706 -0 1.740261 3.572215 -7.311524 -5.462005 -0.5276951 -8.069191 -0 16.76853 -0 -1.557768 -14.32234 16.3404 -3.586183 0.02661282 4.500638 -0.2386259 11.55207 -6.875313 1.047482 21.37849 7.610861 2.628403 -16.71037 8.14355 5.297149 -17.21863 11.23267 85.33829 32.40246 -14.59281 -0 0 14.52418 -27.36309 17.84608 14.82173 4.03358 -18.81 -4.497588 -86.46166 21.96659 16.35406 0 0 -16.07697 -0.4540739 8.275526 14.94097
2050.055 36.91804 1983.518 6.43025 1.132797 89.01802 -0.1406285 -12.52561 3.386657 -0 47.81487 -0 1.645114 2.091278 -8.053086 -5.285548 3.735259 -8.177843 -0 14.93141 -0 -1.973059 -15.4786 15.71855 -3.196377 0.2751913 3.761814 0.1216487 11.25391 -7.461695 1.00685 21.49153 7.86568 2.444731 -16.3403 8.526817 4.88189 -16.4738 11.01491 86.69417 32.6515 -16.66598 -0 0 13.20543 -27.70556 18.89582 14.6483 4.698599 -19.65173 -4.754594 -84.998 21.63748 13.48076 0 0 -18.60237 0.070078 8.751828 14.05865
2055.635 36.59106 1983.079 6.191759 1.055756 89.90229 -0.1265629 -17.58903 2.356931 -0 38.94814 -0 1.88462 0.09876193 -8.559196 -5.17209 8.08768 -8.313882 -0 13.74831 -0 -2.944924 -16.73965 14.56935 -2.849746 0.4471395 3.148063 0.3819567 10.61227 -7.778842 1.182584 21.66185 7.950588 2.155241 -15.90169 9.054457 4.135073 -15.45352 10.63371 88.20126 32.3764 -18.69104 -0 0 11.93738 -27.70022 19.99231 14.13245 5.581314 -20.44882 -4.855159 -83.33203 21.40601 9.955674 0 0 -21.7427 0.7553183 9.248751 12.89439
2061.502 35.6822 1982.836 5.672877 1.221281 90.68789 -0.3540173 -22.1447 1.12815 -0 28.09462 -0 2.377541 -1.928312 -8.812194 -5.201317 12.13072 -8.373331 -0 13.65858 -0 -4.185094 -18.09944 13.08263 -2.715697 0.4625283 2.762995 0.3638002 9.702004 -7.674775 1.650519 21.86073 7.867969 1.897066 -15.1631 9.697378 3.350212 -13.96026 10.11372 89.65821 31.99348 -20.46661 -0 0 10.61012 -27.39768 21.39249 13.23038 6.754939 -21.30262 -4.750197 -81.58154 21.30237 5.817558 0 0 -25.37909 1.752018 9.904897 11.39923
2067.86 34.28981 1982.796 5.168713 1.744519 91.50639 -0.8367391 -25.21977 0.07499984 -0 17.86254 -0 3.02593 -3.821731 -9.030792 -5.402223 15.54644 -8.322962 -0 14.58002 -0 -5.195656 -19.39837 11.92021 -2.964108 0.2369157 2.607257 -0.10149 8.707539 -7.057565 2.414005 22.13645 7.678186 1.782091 -13.66524 10.41005 2.851264 -11.8491 9.508568 90.89757 31.95939 -21.75822 -0 0 9.142676 -27.06589 23.32521 11.99347 8.214766 -22.2273 -4.437443 -79.91635 21.22998 1.202678 0 0 -28.87864 3.190501 10.87134 9.417827
2074.763 32.68404 1982.908 5.545935 2.466068 92.41974 -1.154577 -25.27112 -0.1564508 -0 12.67599 -0 3.501821 -5.892447 -9.572029 -5.50178 18.72356 -8.544972 -0 16.45941 -0 -5.79198 -19.92165 11.99957 -3.48249 -0.1938464 2.337773 -0.8321402 7.811405 -6.110341 3.252034 22.69714 7.378623 1.717296 -11.39071 11.01711 2.753858 -9.366951 8.976105 91.86455 32.28623 -22.28819 -0 0 7.449203 -26.64784 25.17112 10.42017 9.45539 -22.7246 -4.011332 -78.64232 21.01255 -3.208791 0 0 -30.47488 4.742739 12.23124 6.806781
2082.073 31.70122 1983.076 6.673247 2.163304 93.06376 0.6375168 -22.49672 1.250709 -0 14.7884 -0 2.529232 -5.737577 -10.14473 -4.628847 21.14252 -9.21286 -0 23.27392 -0 -6.887025 -17.8606 12.90185 -3.091527 -0.4365018 1.7224 -0.6111228 7.801285 -6.007057 3.353798 22.95999 6.702903 1.844182 -11.321 10.28188 3.190739 -8.57653 9.249141 92.08182 32.03382 -22.21765 -0 0 5.823961 -24.27511 23.5944 8.665025 8.947231 -22.08207 -3.8079 -78.93131 20.66454 -3.426756 0 0 -28.19905 4.83362 12.82486 5.464452
